<?xml version="1.0" encoding="UTF-8" standalone="no"?>
<!-- Created with Inkscape (http://www.inkscape.org/) -->

<svg
   xmlns:dc="http://purl.org/dc/elements/1.1/"
   xmlns:cc="http://creativecommons.org/ns#"
   xmlns:rdf="http://www.w3.org/1999/02/22-rdf-syntax-ns#"
   xmlns:svg="http://www.w3.org/2000/svg"
   xmlns="http://www.w3.org/2000/svg"
   xmlns:xlink="http://www.w3.org/1999/xlink"
   xmlns:sodipodi="http://sodipodi.sourceforge.net/DTD/sodipodi-0.dtd"
   xmlns:inkscape="http://www.inkscape.org/namespaces/inkscape"
   version="1.1"
   id="svg3741"
   width="228"
   height="55"
   viewBox="0 0 228 55"
   sodipodi:docname="trenet-logo-colored.svg"
   inkscape:version="0.92.3 (2405546, 2018-03-11)">
  <metadata
     id="metadata3747">
    <rdf:RDF>
      <cc:Work
         rdf:about="">
        <dc:format>image/svg+xml</dc:format>
        <dc:type
           rdf:resource="http://purl.org/dc/dcmitype/StillImage" />
        <dc:title />
      </cc:Work>
    </rdf:RDF>
  </metadata>
  <defs
     id="defs3745">
    <marker
       inkscape:stockid="Arrow1Lstart"
       orient="auto"
       refY="0.0"
       refX="0.0"
       id="Arrow1Lstart"
       style="overflow:visible"
       inkscape:isstock="true">
      <path
         id="path3153"
         d="M 0.0,0.0 L 5.0,-5.0 L -12.5,0.0 L 5.0,5.0 L 0.0,0.0 z "
         style="fill-rule:evenodd;stroke:#000000;stroke-width:1pt;stroke-opacity:1;fill:#83f101;fill-opacity:1"
         transform="scale(0.8) translate(12.5,0)" />
    </marker>
    <linearGradient
       id="linearGradient3101"
       inkscape:collect="always">
      <stop
         id="stop3097"
         offset="0"
         style="stop-color:#83f101;stop-opacity:1;" />
      <stop
         id="stop3099"
         offset="1"
         style="stop-color:#bbbbbb;stop-opacity:1" />
    </linearGradient>
    <linearGradient
       inkscape:collect="always"
       id="linearGradient1637">
      <stop
         style="stop-color:#83f101;stop-opacity:1;"
         offset="0"
         id="stop1633" />
      <stop
         style="stop-color:#83f101;stop-opacity:0;"
         offset="1"
         id="stop1635" />
    </linearGradient>
    <filter
       inkscape:label="Sharpen More"
       inkscape:menu="Image Effects"
       inkscape:menu-tooltip="Sharpen edges and boundaries within the object, force=0.3"
       style="color-interpolation-filters:sRGB;"
       id="filter3767">
      <feConvolveMatrix
         order="3 3"
         kernelMatrix="0 -0.15 0 -0.15 1.6 -0.15 0 -0.15 0"
         divisor="1"
         in="SourceGraphic"
         targetX="1"
         targetY="1"
         id="feConvolveMatrix3765"
         result="fbSourceGraphic" />
      <feColorMatrix
         result="fbSourceGraphicAlpha"
         in="fbSourceGraphic"
         values="0 0 0 -1 0 0 0 0 -1 0 0 0 0 -1 0 0 0 0 1 0"
         id="feColorMatrix3769" />
      <feConvolveMatrix
         id="feConvolveMatrix3771"
         targetY="1"
         targetX="1"
         in="fbSourceGraphic"
         divisor="1"
         kernelMatrix="0 -0.3 0 -0.3 2.2 -0.3 0 -0.3 0"
         order="3 3"
         result="result1" />
      <feBlend
         in2="fbSourceGraphic"
         id="feBlend3773"
         mode="normal"
         result="result2" />
    </filter>
    <linearGradient
       inkscape:collect="always"
       xlink:href="#linearGradient3101"
       id="linearGradient1639"
       x1="211.78366"
       y1="5.5718126"
       x2="220.36571"
       y2="5.1772065"
       gradientUnits="userSpaceOnUse" />
    <linearGradient
       inkscape:collect="always"
       xlink:href="#linearGradient1637"
       id="linearGradient3095"
       x1="153.0938"
       y1="17.415852"
       x2="227.31026"
       y2="17.415852"
       gradientUnits="userSpaceOnUse" />
  </defs>
  <sodipodi:namedview
     pagecolor="#ffffff"
     bordercolor="#666666"
     borderopacity="1"
     objecttolerance="10"
     gridtolerance="10"
     guidetolerance="10"
     inkscape:pageopacity="0"
     inkscape:pageshadow="2"
     inkscape:window-width="1215"
     inkscape:window-height="1001"
     id="namedview3743"
     showgrid="false"
     inkscape:zoom="4"
     inkscape:cx="169.27299"
     inkscape:cy="22.079407"
     inkscape:window-x="1272"
     inkscape:window-y="-8"
     inkscape:window-maximized="1"
     inkscape:current-layer="layer3"
     showguides="true"
     inkscape:guide-bbox="true">
    <sodipodi:guide
       position="158.5702,15.340379"
       orientation="0,1"
       id="guide3515"
       inkscape:locked="false" />
    <sodipodi:guide
       position="160.5,2.125"
       orientation="0,1"
       id="guide3517"
       inkscape:locked="false" />
  </sodipodi:namedview>
  <g
     inkscape:groupmode="layer"
     id="layer3"
     inkscape:label="Base Stencil"
     style="display:inline">
    <path
       style="display:inline;fill:none;stroke:#000000;stroke-width:1px;stroke-linecap:butt;stroke-linejoin:miter;stroke-opacity:1"
       d="M 57.182755,19.849136 C 72.562005,17.05291 70.411065,2.7491362 70.411065,2.7491362 H 2.3337029 v 4.58181 l 10.2169811,0.0078 V 33.184975 h 5.054718 V 7.3320562 l 13.929843,0.0019 0.05129,25.8569098 h 4.624529 v -12.80399 h 13.120751 l 16.56227,14.088679 3.71037,-3.710377 z"
       id="path3878"
       inkscape:connector-curvature="0"
       sodipodi:nodetypes="cccccccccccccccc" />
    <path
       style="display:inline;fill:none;stroke:#000000;stroke-width:1px;stroke-linecap:butt;stroke-linejoin:miter;stroke-opacity:1"
       d="m 59.226155,14.901966 c 7.81853,-2.622354 6.34528,-7.6358488 6.34528,-7.6358488 l -29.397162,0.06629 v 7.8509438 z"
       id="path3884"
       inkscape:connector-curvature="0"
       sodipodi:nodetypes="ccccc" />
    <path
       style="display:inline;fill:none;stroke:#000000;stroke-width:1px;stroke-linecap:butt;stroke-linejoin:miter;stroke-opacity:1"
       d="m 77.534025,15.354252 c -0.5479,-5.8878848 4.20669,-7.7825158 6.19726,-7.8045558 l 25.396755,-0.06849 v -4.624528 c 0,0 -23.458565,-0.104406 -24.318935,0.0031 -0.86038,0.107548 -9.70382,0.412465 -11.63273,8.5486268 -0.16407,0.578124 0.0309,21.768071 0.0309,21.768071 l 35.909005,-3e-6 0.0111,-4.864306 -31.618165,0.03315 V 20.27928 h 31.619565 l -0.0221,-5.051779 z"
       id="path3892"
       inkscape:connector-curvature="0"
       sodipodi:nodetypes="ccccsccccccccc" />
    <path
       style="fill:none;stroke:#000000;stroke-width:1px;stroke-linecap:butt;stroke-linejoin:miter;stroke-opacity:1"
       d="m 112.47762,33.142836 5.05572,-5.16e-4 0.0262,-23.2125588 31.40782,25.2289168 c 4.3e-4,-10.674498 0.0685,-22.264971 0.0138,-32.3234568 l -5.59464,0.0048 -0.20939,21.5603968 -25.96562,-21.5603848 -4.75032,-0.0048 z"
       id="path3904"
       inkscape:connector-curvature="0"
       sodipodi:nodetypes="cccccccccc" />
    <path
       style="fill:none;stroke:#000000;stroke-width:1px;stroke-linecap:butt;stroke-linejoin:miter;stroke-opacity:1"
       d="m 190.38254,28.841492 -0.0107,4.319897 -36.71925,-0.01679 -0.0247,-18.99546 v 0 c 0.10842,-3.430487 4.31753,-11.3454318 11.21176,-11.2997638 7.10122,0.04704 55.89146,0 55.89146,0 l -0.013,4.453654 -10.92591,0.06629 0.038,25.7685408 -5.24771,-0.0013 -0.0601,-25.7628538 c 0,0 -37.67754,-0.06371 -38.82453,0 -0.36326,0.02018 -1.85481,0.03576 -2.83895,0.527761 -1.79401,0.896876 -3.40348,2.7586048 -4.04407,4.7420508 -0.97212,3.009966 0,2.581132 0,2.581132 h 31.55258 l -0.0221,5.269811 h -31.42293 l 0.10755,8.496227 z"
       id="path3964"
       inkscape:connector-curvature="0"
       sodipodi:nodetypes="cccccsccccccssscccccc" />
    <path
       style="fill:none;stroke:#000000;stroke-width:1px;stroke-linecap:butt;stroke-linejoin:miter;stroke-opacity:1"
       d="m 220.71811,7.3030292 c 1.54563,-0.02679 3.02305,0.248027 5.47911,-0.476656 0.40358,-1.991045 0.24696,-3.089209 0.49797,-5.057732 -1.9339,0.150766 -3.94733,-0.02361 -4.88943,0.744849 l -0.65305,0.519821 -0.37941,0.633798 z"
       id="path3976"
       inkscape:connector-curvature="0"
       sodipodi:nodetypes="ccccccc" />
    <path
       style="fill:none;stroke:#000000;stroke-width:1px;stroke-linecap:butt;stroke-linejoin:miter;stroke-opacity:1"
       d="m 112.47205,52.416165 h 2.54758 l 0.0269,-12.351991 c -0.81341,0 -1.63178,0 -2.58561,0 z"
       id="path3978"
       inkscape:connector-curvature="0"
       sodipodi:nodetypes="ccccc" />
    <path
       style="fill:none;stroke:#000000;stroke-width:1px;stroke-linecap:butt;stroke-linejoin:miter;stroke-opacity:1"
       d="m 123.57496,52.340118 h 2.47154 l -0.011,-9.654135 h 2.92782 l 0.011,-2.589486 h -8.55533 v 2.547586 l 3.11794,0.03802 z"
       id="path3980"
       inkscape:connector-curvature="0"
       sodipodi:nodetypes="ccccccccc" />
    <text
       xml:space="preserve"
       style="font-style:normal;font-weight:normal;font-size:23.45157051px;line-height:1.25;font-family:sans-serif;letter-spacing:0px;word-spacing:0px;fill:#000000;fill-opacity:1;stroke:none;stroke-width:0.58628923"
       x="139.77847"
       y="50.093956"
       id="text3984"
       transform="matrix(0.95321651,0,0.01228494,1.0490796,0,0)"><tspan
         sodipodi:role="line"
         id="tspan3982"
         x="139.77847"
         y="50.093956"
         style="font-style:normal;font-variant:normal;font-weight:normal;font-stretch:normal;font-family:'Colonna MT';-inkscape-font-specification:'Colonna MT';stroke-width:0.58628923">&amp;</tspan></text>
    <path
       style="fill:none;stroke:#000000;stroke-width:1px;stroke-linecap:butt;stroke-linejoin:miter;stroke-opacity:1"
       d="m 155.43879,52.378141 h 2.66166 l -0.0269,-12.256363 h -2.69968 z"
       id="path3992"
       inkscape:connector-curvature="0"
       sodipodi:nodetypes="ccccc" />
    <path
       style="fill:none;stroke:#000000;stroke-width:2.0268414;stroke-linecap:butt;stroke-linejoin:miter;stroke-miterlimit:4;stroke-dasharray:none;stroke-opacity:1"
       d="m 167.67516,51.789622 4.94244,0.01731 c 0.35732,-0.219617 4.80772,-5.287705 -0.1562,-11.161105 -0.8046,0.03054 -3.41444,0.0081 -4.94938,0 z"
       id="path3994"
       inkscape:connector-curvature="0"
       sodipodi:nodetypes="ccccc" />
    <path
       style="fill:none;stroke:#000000;stroke-width:1px;stroke-linecap:butt;stroke-linejoin:miter;stroke-opacity:1"
       d="M 184.49573,52.812344 Z"
       id="path4539"
       inkscape:connector-curvature="0" />
    <path
       style="fill:none;stroke:#000000;stroke-width:1px;stroke-linecap:butt;stroke-linejoin:miter;stroke-opacity:1"
       d="m 184.49573,52.343843 8.10216,-0.01338 v -2.300826 l -5.31941,-0.03786 v -2.252705 h 4.60006 v -2.423077 h -4.58113 v -2.423077 h 5.26736 l -0.0134,-2.793284 -8.10691,-0.02638 z"
       id="path4541"
       inkscape:connector-curvature="0"
       sodipodi:nodetypes="ccccccccccccc" />
    <path
       style="fill:none;stroke:#000000;stroke-width:1px;stroke-linecap:butt;stroke-linejoin:miter;stroke-opacity:1"
       d="m 200.05643,52.301226 h 2.57452 l 1.03065,-3.01288 3.58473,5e-6 0.9519,3.009436 c 0.91496,0.0063 1.7335,-0.04075 2.64846,-0.03445 v 0 l -4.19288,-12.178436 c -0.34913,0 -1.31632,0.01105 -2.19282,0.01105 z"
       id="path4543"
       inkscape:connector-curvature="0"
       sodipodi:nodetypes="cccccccccc" />
    <path
       style="fill:none;stroke:#000000;stroke-width:0.9458552px;stroke-linecap:butt;stroke-linejoin:miter;stroke-opacity:1"
       d="m 206.91524,47.819601 -1.1601,-4.738413 -0.44789,0.004 -1.26101,4.729414 c 1.04451,0.01254 1.82435,0.005 2.869,0.005 z"
       id="path4581"
       inkscape:connector-curvature="0"
       sodipodi:nodetypes="ccccc" />
    <path
       style="opacity:1;fill:#83f101;fill-opacity:1;stroke:#000000;stroke-width:0.075;stroke-miterlimit:4;stroke-dasharray:none;stroke-opacity:1"
       d="m 57.544877,27.938432 -8.368265,-7.121966 -6.28125,-0.003 -6.28125,-0.003 v 6.4375 6.4375 h -2.75 -2.75 V 20.747898 7.8103982 h -6.5625 -6.5625 v 12.9374998 12.9375 h -2.9375 -2.9375 V 20.747898 7.8103982 h -5.1249999 -5.125 v -2.75 -2.75 H 36.294235 c 27.407951,0 34.45032,0.031868 34.529148,0.15625 0.191248,0.3017643 0.08996,3.9738211 -0.143942,5.21875 -0.752114,4.0029688 -2.62756,7.1462078 -5.600473,9.3863648 -1.319296,0.994119 -3.610296,2.107698 -5.394606,2.622136 -0.794887,0.229177 -1.441282,0.44758 -1.436434,0.485342 0.0048,0.03776 2.705922,2.429497 6.002383,5.314968 l 5.993566,5.246312 -2.157292,2.159938 c -1.186512,1.187967 -2.160928,2.159939 -2.165368,2.159939 -0.0044,0 -3.773795,-3.204885 -8.37634,-7.121966 z m 9.874099,4.379622 c 1.224196,-1.227393 1.461914,-1.524325 1.338957,-1.672477 -0.08222,-0.09907 -2.927947,-2.619668 -6.32383,-5.601319 -3.395882,-2.981652 -6.161057,-5.434461 -6.144832,-5.450686 0.01623,-0.01623 0.605251,-0.14492 1.308946,-0.28599 2.33692,-0.46848 4.638113,-1.373155 6.390895,-2.51247 1.133051,-0.736488 3.075561,-2.724464 3.795384,-3.88422 0.644096,-1.037747 1.300807,-2.500322 1.61666,-3.6004938 0.47071,-1.6395678 0.802074,-4.5078691 0.643184,-5.5674258 L 69.960726,3.1853982 H 36.34992 2.7391121 v 1.875 1.875 h 5.125 5.1249999 v 12.8749998 12.875 h 2.0625 2.0625 v -12.875 -12.8749998 h 7.436916 7.436917 l 0.03183,12.9062498 0.03183,12.90625 1.84375,0.03459 1.84375,0.03459 v -6.440843 -6.440841 h 6.868684 6.868685 l 8.155611,6.9375 c 4.485586,3.815625 8.187745,6.9375 8.22702,6.9375 0.03927,0 0.741213,-0.671555 1.559864,-1.492344 z"
       id="path1506"
       inkscape:connector-curvature="0" />
    <path
       style="opacity:1;fill:#83f101;fill-opacity:1;stroke:#000000;stroke-width:0.147;stroke-miterlimit:4;stroke-dasharray:none;stroke-opacity:1"
       d="M 35.702244,11.335054 V 7.0482785 L 39.97351,6.9316152 c 2.349196,-0.064165 9.147075,-0.1166633 15.106397,-0.1166633 h 10.83513 l 0.118589,0.6321308 c 0.479254,2.5546443 -1.386044,5.3693033 -4.625143,6.9791503 l -1.576221,0.783389 -4.331029,0.117793 c -2.382066,0.06479 -7.81132,0.157533 -12.065009,0.206104 l -7.73398,0.08831 z m 21.895388,3.145504 c 1.9288,-0.09749 2.069286,-0.132169 3.561412,-0.87913 2.53601,-1.269531 4.064908,-3.235506 4.064908,-5.2269766 V 7.6988354 H 50.905039 36.586127 v 3.5373006 3.537301 l 9.501747,-0.09569 c 5.225961,-0.05263 10.405352,-0.141365 11.509758,-0.197186 z"
       id="path1508"
       inkscape:connector-curvature="0" />
    <path
       style="opacity:1;fill:#83f101;fill-opacity:1;stroke:#000000;stroke-width:0.1;stroke-miterlimit:4;stroke-dasharray:none;stroke-opacity:1"
       d="M 72.750307,22.43272 V 11.215441 l 0.411632,-1.134033 C 73.768147,8.4113241 74.445483,7.3503029 75.664512,6.1612226 76.926559,4.9301822 78.27936,4.0823548 79.948014,3.4766659 82.743271,2.4620422 82.39032,2.4848015 96.482578,2.4104709 L 109.51986,2.3417049 V 5.091153 7.8406012 l -4.64039,0.021375 C 102.32726,7.8737318 96.221832,7.9343132 91.31186,7.9966005 82.426028,8.1093249 82.380771,8.111762 81.550895,8.5222276 79.482688,9.545186 78.167601,11.4456 77.943115,13.735782 l -0.118664,1.210597 15.847724,-0.06155 15.847725,-0.06155 -2e-5,2.961009 -2e-5,2.96101 H 93.694684 77.86951 l 0.04785,3.579728 0.04785,3.579728 15.77732,-0.04038 15.77732,-0.04038 v 2.912997 2.912997 H 91.135083 72.750307 Z m 35.885673,8.300463 V 28.700251 H 92.90285 77.169724 V 24.280834 19.861416 H 92.90285 108.63598 V 17.720481 15.579545 L 92.92977,15.7109 77.223563,15.842255 77.113779,15.165737 c -0.16455,-1.014 0.168361,-2.936898 0.70451,-4.069261 0.628074,-1.3265127 1.892733,-2.5620162 3.363967,-3.2864131 L 82.376836,7.2218828 95.506407,7.1733155 108.63598,7.124748 V 5.1769218 3.2290956 l -12.683732,0.056682 c -12.496872,0.055847 -12.704562,0.062496 -14.097941,0.4513926 -4.089509,1.1413932 -6.960976,3.5592762 -7.917335,6.6666928 -0.460355,1.495793 -0.505122,3.032 -0.374769,12.860505 l 0.126018,9.501747 h 17.473877 17.473882 z"
       id="path1510"
       inkscape:connector-curvature="0" />
    <path
       style="opacity:1;fill:#83f101;fill-opacity:1;stroke:#000000;stroke-width:0.1;stroke-miterlimit:4;stroke-dasharray:none;stroke-opacity:1"
       d="m 133.64988,23.39899 -15.55635,-12.52223 -0.0455,11.29823 -0.0455,11.298232 h -3.0039 -3.00391 V 17.916873 2.3605237 h 2.64057 2.64057 l 12.69481,10.5394773 12.69481,10.539477 0.10827,-4.308099 c 0.0596,-2.369454 0.11921,-7.112219 0.13258,-10.5394768 l 0.0243,-6.2313785 h 3.27037 3.27037 V 19.15431 c 0,9.236582 -0.0597,16.787738 -0.13258,16.780347 -0.0729,-0.0074 -7.13294,-5.648441 -15.68893,-12.535667 z m 14.93763,-4.686622 V 3.2444071 h -2.35792 -2.35791 l -0.11666,5.7010485 c -0.0642,3.1355764 -0.1168,8.0676464 -0.11696,10.9601554 -1.7e-4,2.892508 -0.0404,5.259106 -0.0893,5.259106 -0.049,0 -6.02897,-4.932069 -13.2889,-10.960155 L 117.05997,3.2444071 h -2.09068 -2.09067 V 18.005261 32.766115 h 2.12007 2.12008 l 0.0454,-11.825494 0.0454,-11.8254948 15.55634,12.5202778 c 8.556,6.886154 15.61602,12.525824 15.68894,12.532602 0.0729,0.0068 0.13258,-6.94826 0.13258,-15.455638 z"
       id="path1512"
       inkscape:connector-curvature="0" />
    <path
       style="opacity:1;fill:#83f101;fill-opacity:1;stroke:#000000;stroke-width:0;stroke-miterlimit:4;stroke-dasharray:none;stroke-dashoffset:0;stroke-opacity:1"
       d="m 63.502128,31.645486 c -1.236196,-1.046196 -4.882442,-4.139946 -8.102767,-6.875 l -5.855138,-4.972825 h -6.988612 -6.988613 v 6.4375 6.4375 h -1.489776 c -0.819377,0 -1.578752,-0.03414 -1.6875,-0.07587 -0.178525,-0.06851 -0.197724,-1.32469 -0.197724,-12.9375 V 6.7976612 h -7.625 -7.625 v 12.8749998 12.875 h -1.875 -1.875 v -12.875 -12.8749998 h -5.1249995 -5.125 v -1.75 -1.75 H 36.373835 69.80567 l 0.08538,0.4550987 c 0.207855,1.1079593 -0.305442,4.7005736 -0.89562,6.2685321 -0.479172,1.273044 -1.238531,2.711404 -1.84531,3.495347 -0.690411,0.891992 -2.456784,2.608346 -3.208119,3.117272 -1.546976,1.047865 -4.037572,2.024866 -6.53086,2.561901 -0.738848,0.159142 -1.343536,0.320889 -1.34375,0.359437 -2.5e-4,0.03855 1.016689,0.966673 2.259785,2.0625 6.878663,6.063747 10.1671,9.009116 10.20995,9.144787 0.05216,0.165144 -2.450563,2.785859 -2.659995,2.785403 -0.07005,-1.25e-4 -1.138802,-0.856257 -2.375,-1.902453 z m -9.7175,-16.102331 6.030129,-0.116859 1.157371,-0.578583 c 0.636554,-0.318221 1.531702,-0.826047 1.989218,-1.128504 2.490564,-1.646472 3.808482,-4.50251 3.150687,-6.8277978 -0.05835,-0.2062608 -0.706107,-0.21875 -11.345573,-0.21875 -6.206032,0 -13.06474,0.03721 -15.241577,0.082688 l -3.957885,0.082688 v 4.4952778 4.495278 l 6.09375,-0.08429 c 3.351563,-0.04636 8.807309,-0.136876 12.12388,-0.201148 z"
       id="path1549"
       inkscape:connector-curvature="0" />
    <path
       style="opacity:1;fill:#83f101;fill-opacity:1;stroke:#000000;stroke-width:0;stroke-miterlimit:4;stroke-dasharray:none;stroke-opacity:1"
       d="m 73.743329,23.226839 c -0.09924,-9.924407 -0.04562,-11.491441 0.443018,-12.94663 0.527659,-1.5713908 1.794189,-3.2198498 3.298679,-4.293412 1.592367,-1.1362686 3.948345,-2.0856079 5.73704,-2.3117356 0.538083,-0.068025 6.429566,-0.1618795 13.093751,-0.2085913 L 108.43133,3.3815479 V 5.137986 6.8944242 l -13.03125,0.049978 -13.03125,0.049978 -1.1875,0.6130122 c -2.893095,1.4934764 -4.378246,4.0224816 -4.226467,7.1970856 0.02923,0.611339 0.08068,1.139066 0.114344,1.172726 0.03366,0.03366 5.43047,0.0086 11.992912,-0.05558 6.562441,-0.06423 13.605151,-0.118395 15.650461,-0.120372 l 3.71875,-0.0036 v 1.9375 1.9375 h -15.75 -15.75 v 4.625 4.625 h 15.75 15.75 v 1.8125 1.8125 H 91.133933 73.836536 Z"
       id="path1551"
       inkscape:connector-curvature="0" />
    <path
       style="opacity:1;fill:#83f101;fill-opacity:1;stroke:#000000;stroke-width:0;stroke-miterlimit:4;stroke-dasharray:none;stroke-opacity:1"
       d="M 139.30633,26.636485 C 134.39071,22.69266 127.38758,17.06593 123.74383,14.132639 l -6.625,-5.3332552 -0.0766,4.5303892 c -0.0421,2.491713 -0.0843,7.835076 -0.0937,11.874138 l -0.0171,7.34375 h -1.9375 -1.9375 V 17.985161 3.4226612 l 1.96875,0.00219 1.96875,0.00219 9.375,7.7810148 c 5.15625,4.279559 11.14688,9.247769 13.3125,11.040466 l 3.9375,3.25945 0.0774,-0.448902 c 0.0426,-0.246897 0.11351,-4.295525 0.1577,-8.996953 0.0442,-4.701427 0.11665,-9.4686148 0.16102,-10.5937499 l 0.0807,-2.0457001 h 2.16787 2.16787 l -0.0172,12.65625 c -0.009,6.960938 -0.0517,13.797431 -0.0937,15.192208 l -0.0765,2.535956 z"
       id="path1553"
       inkscape:connector-curvature="0" />
    <path
       style="opacity:1;fill:url(#linearGradient1639);fill-opacity:1;stroke:url(#linearGradient3095);stroke-width:0.27500001;stroke-miterlimit:4;stroke-dasharray:none;stroke-opacity:0.06030154"
       d="m 153.18221,23.641411 c 9.7e-4,-11.06307 -0.0236,-10.712319 0.90314,-12.90625 1.80362,-4.2699766 5.37467,-7.5050863 9.02519,-8.1761533 0.52173,-0.095909 9.24062,-0.1363465 29.39794,-0.1363465 h 28.65624 l 0.60205,-0.3712443 c 0.69062,-0.4258534 1.52249,-0.5725869 3.89826,-0.6876159 l 1.5462,-0.074863 -0.078,0.6606116 c -0.0429,0.3633364 -0.1352,1.4406237 -0.2051,2.3939715 -0.14338,1.9555899 -0.27803,2.6935589 -0.51883,2.8436097 -0.091,0.056703 -0.53107,0.1983942 -0.97795,0.3148691 -0.70586,0.1839787 -1.75801,0.218345 -8.01681,0.2618516 l -7.20431,0.050079 0.0669,12.8668655 0.0669,12.866865 h -3.06086 -3.06086 l -0.0829,-7.03125 c -0.0456,-3.867187 -0.0829,-9.66227 -0.083,-12.87796 l -1.2e-4,-5.8467095 -19.90625,0.034817 c -18.48974,0.032339 -19.95072,0.0502 -20.53125,0.2509955 -1.24501,0.4306329 -2.82747,1.7874646 -3.63923,3.120358 -0.47942,0.7872 -0.98659,2.165556 -1.11714,3.036132 l -0.0845,0.563617 h 16.0142 16.01419 v 3.0625 3.0625 h -15.6875 -15.6875 v 3.821234 3.821232 l 15.6875,-0.09065 15.6875,-0.09065 v 2.581917 2.581917 h -18.8125 -18.8125 z m 36.74912,7.328188 v -1.703064 l -15.6875,0.09338 -15.6875,0.09338 v -3.558611 c 0,-1.957237 -0.0366,-4.073503 -0.0812,-4.702815 l -0.0812,-1.144203 h 15.76872 15.76872 v -2.1875 -2.1875 l -15.71875,-0.0019 c -8.64531,-0.001 -15.78064,-0.04324 -15.85629,-0.09375 -0.47939,-0.320102 -0.52534,-0.974017 -0.16508,-2.349451 0.70436,-2.689171 2.86252,-5.1880335 5.1646,-5.9799163 0.76128,-0.2618723 0.8094,-0.2625462 21.15355,-0.296255 l 20.39054,-0.033787 0.0933,12.8775353 0.0933,12.877536 h 2.18618 2.18618 l -0.0931,-12.873674 -0.0931,-12.8736736 5.48555,-0.032576 5.48554,-0.032576 0.0347,-1.78125 0.0347,-1.78125 -28.22218,0.00217 c -31.20237,0.0024 -29.06994,-0.053715 -30.895,0.8129995 -2.93523,1.3939347 -5.45369,4.3910195 -6.72601,8.0042491 l -0.34969,0.993081 -0.0363,9.78125 -0.0363,9.78125 h 17.94183 17.94184 z M 225.07787,6.6637244 c 0.57036,-0.1179884 0.72297,-0.2021759 0.78026,-0.4304324 0.0559,-0.2225961 0.31714,-3.3536447 0.3221,-3.8600667 0.002,-0.1893476 -3.00624,-0.00308 -3.53793,0.2190747 -0.58559,0.2446764 -1.09923,0.638554 -1.30029,0.9971102 -0.0956,0.1704795 -0.15346,0.8448326 -0.15625,1.8208748 l -0.004,1.550124 1.59375,-0.075004 c 0.87656,-0.041252 1.91282,-0.1410085 2.30279,-0.2216806 z"
       id="path1557"
       inkscape:connector-curvature="0" />
    <path
       style="opacity:1;fill:#83f101;fill-opacity:1;stroke:#000000;stroke-width:0.1;stroke-miterlimit:4;stroke-dasharray:none;stroke-opacity:1"
       d="m 154.21951,22.828911 0.079,-9.71875 0.30596,-0.897394 c 0.42926,-1.259075 1.37298,-3.037729 2.20425,-4.1544321 1.70729,-2.2935095 4.25005,-4.0925591 6.2249,-4.4042134 0.55902,-0.088221 10.15227,-0.1512305 29.01004,-0.1905414 l 28.17482,-0.058733 -0.0682,1.5793783 c -0.0375,0.8686581 -0.0953,1.606453 -0.12837,1.6395441 -0.0331,0.033091 -2.49486,0.09492 -5.47061,0.137397 l -5.41044,0.077231 0.0868,12.8546315 0.0868,12.854632 h -2.06654 -2.06655 v -5.166895 c 0,-2.841791 -0.0374,-8.635541 -0.083,-12.874999 l -0.083,-7.7081057 -19.88575,0.00386 c -12.04386,0.00234 -20.25275,0.051487 -20.8164,0.1246363 -2.78075,0.360877 -5.41446,3.0152905 -6.25583,6.3050024 -0.34238,1.338709 -0.32914,1.874741 0.0558,2.259684 l 0.30682,0.306818 h 15.69318 15.69318 v 2.0625 2.0625 H 174.03681 158.2673 l 0.082,1.894874 c 0.0451,1.042181 0.082,3.216861 0.082,4.832624 v 2.937748 l 15.6875,-0.08859 15.6875,-0.08858 v 1.568463 1.568462 h -17.8329 -17.8329 z"
       id="path1559"
       inkscape:connector-curvature="0" />
    <path
       style="opacity:1;fill:#83f101;fill-opacity:1;stroke:#000000;stroke-width:0.04375;stroke-miterlimit:4;stroke-dasharray:none;stroke-opacity:1"
       d="m 221.49932,6.792738 -0.23131,-0.010881 0.019,-1.1938479 c 0.0183,-1.1457912 0.048,-1.6131083 0.11948,-1.8800117 0.0427,-0.1591913 0.39301,-0.5142489 0.70922,-0.7187247 0.4912,-0.3176306 0.7932,-0.4023739 1.79,-0.5022847 0.50443,-0.05056 2.04606,-0.1009446 2.12789,-0.069545 0.0337,0.012949 0.0374,0.094525 0.0188,0.4182773 -0.0336,0.5830002 -0.20989,2.687243 -0.25883,3.0889543 -0.0384,0.315014 -0.0493,0.3497031 -0.13351,0.4249734 -0.21837,0.1951109 -1.16953,0.3369728 -2.9115,0.4342369 -0.55475,0.030975 -0.74958,0.032356 -1.24923,0.00885 z"
       id="path1579"
       inkscape:connector-curvature="0" />
    <path
       style="opacity:1;fill:#83f101;fill-opacity:1;stroke:#000000;stroke-width:0.0875;stroke-miterlimit:4;stroke-dasharray:none;stroke-opacity:1"
       d="m 146.24777,51.750735 c -1.12482,-0.472588 -2.04592,-1.312275 -4.32739,-3.944912 -0.50642,-0.584375 -1.32777,-1.56875 -1.82522,-2.1875 -2.13732,-2.658516 -2.6192,-3.786163 -2.08319,-4.874941 0.23072,-0.468661 0.56814,-0.76262 1.12015,-0.975856 0.4883,-0.188622 1.44447,-0.190818 1.96161,-0.0045 0.68386,0.24638 1.12905,0.643622 1.41382,1.261553 0.12904,0.279996 0.15786,0.436484 0.1554,0.84375 -0.006,0.988573 -0.55619,1.838295 -1.71921,2.655055 l -0.43004,0.302002 0.57891,0.708972 c 0.51946,0.636183 1.96488,2.320635 2.53245,2.951248 l 0.21805,0.242277 0.14515,-0.179777 c 0.21254,-0.263225 0.68067,-1.07454 0.80396,-1.393313 0.32866,-0.849806 -0.0254,-1.449467 -0.97869,-1.657575 -0.0945,-0.02064 -0.17187,-0.0738 -0.17187,-0.118134 0,-0.06388 0.0941,-0.06826 0.45312,-0.0211 0.24922,0.03273 1.20547,0.06251 2.125,0.06618 1.29228,0.0052 1.67188,0.02441 1.67188,0.08479 0,0.04297 -0.0648,0.07813 -0.14398,0.07813 -0.0792,0 -0.29045,0.07299 -0.46948,0.162203 -0.46838,0.233406 -1.06414,0.914618 -2.04452,2.337797 l -0.83956,1.21875 0.68118,0.663694 c 1.08761,1.059689 1.94733,1.551256 2.56636,1.46739 0.15469,-0.02096 0.36226,-0.05597 0.46128,-0.07781 0.29633,-0.06536 0.1694,0.101195 -0.24085,0.316051 -0.50748,0.265781 -1.09605,0.293341 -1.61432,0.07559 z m -5.84613,-7.889742 c 0.62535,-0.459044 0.95082,-1.087792 0.95064,-1.83642 -1.3e-4,-0.518394 -0.10565,-0.827554 -0.39004,-1.142724 -0.29004,-0.321439 -0.53126,-0.419776 -1.02969,-0.419776 -0.48637,0 -0.77376,0.111554 -1.02521,0.397941 -0.40441,0.460591 -0.41232,0.913778 -0.029,1.657387 0.28749,0.557622 1.01462,1.567052 1.1299,1.568557 0.047,6.13e-4 0.22397,-0.100621 0.39336,-0.224965 z"
       id="path1581"
       inkscape:connector-curvature="0" />
    <path
       style="opacity:1;fill:#83f101;fill-opacity:1;stroke:#000000;stroke-width:0.0875;stroke-miterlimit:4;stroke-dasharray:none;stroke-opacity:1"
       d="m 145.16586,52.712147 c -0.71955,-0.105453 -1.22732,-0.372818 -2.04094,-1.074637 l -0.36048,-0.310951 -0.34831,0.318331 c -0.41729,0.381379 -1.0531,0.76595 -1.52447,0.922077 -0.53261,0.17641 -1.71985,0.160995 -2.21875,-0.02881 -1.37447,-0.522903 -2.52908,-2.298173 -2.52908,-3.888585 0,-1.043627 0.37634,-1.945635 1.13364,-2.71708 0.26905,-0.274082 0.48919,-0.504419 0.48919,-0.511862 0,-0.0074 -0.14093,-0.247257 -0.31318,-0.53292 -0.17224,-0.285663 -0.4029,-0.744388 -0.51257,-1.019388 -0.17449,-0.437541 -0.19885,-0.570266 -0.19504,-1.0625 0.003,-0.340908 0.0417,-0.660985 0.0992,-0.8125 l 0.0948,-0.25 0.0419,0.1875 c 0.12269,0.549483 0.39168,1.26809 0.63355,1.692512 0.47965,0.841683 1.63781,2.380418 3.24212,4.307488 1.87518,2.252442 2.8718,3.294149 3.75306,3.922839 0.45188,0.322375 1.36793,0.79045 1.57171,0.803098 0.16377,0.01017 -0.35091,0.111504 -0.54046,0.106414 -0.0859,-0.0023 -0.30005,-0.02527 -0.4758,-0.05103 z m -4.60859,-0.962257 c 0.43575,-0.116021 0.85977,-0.355751 1.27078,-0.718458 l 0.34264,-0.302374 -0.50327,-0.555368 c -0.78704,-0.868496 -1.93152,-2.224174 -2.67173,-3.164742 -0.37198,-0.472656 -0.69638,-0.859375 -0.72091,-0.859375 -0.0838,0 -0.55846,0.530818 -0.75442,0.84375 -0.76068,1.214757 -0.51215,2.882417 0.5984,4.015409 0.67887,0.692585 1.58574,0.968217 2.43851,0.741158 z"
       id="path1583"
       inkscape:connector-curvature="0" />
    <path
       style="opacity:1;fill:#83f101;fill-opacity:1;stroke:#000000;stroke-width:0.0875;stroke-miterlimit:4;stroke-dasharray:none;stroke-opacity:1"
       d="m 136.84202,52.614784 c -1.27938,-0.344362 -2.22585,-1.406169 -2.3871,-2.677974 -0.10571,-0.833731 0.0744,-1.571573 0.55582,-2.276585 0.28018,-0.410333 0.62025,-0.750911 0.54109,-0.541902 -0.21365,0.564126 -0.2788,1.851878 -0.13241,2.617023 0.20991,1.097079 0.88564,2.220071 1.68474,2.79987 0.27077,0.196462 0.22442,0.210532 -0.26214,0.07957 z"
       id="path1585"
       inkscape:connector-curvature="0" />
    <path
       style="opacity:1;fill:#bbbbbb;fill-opacity:1;stroke:#000000;stroke-width:0;stroke-miterlimit:4;stroke-dasharray:none;stroke-opacity:1"
       d="m 113.02869,46.244553 v -5.612661 h 0.7513 0.7513 v 3.079213 c 0,1.693566 -0.0263,4.219263 -0.0584,5.61266 l -0.0584,2.533448 h -0.69288 -0.69288 z"
       id="path1599"
       inkscape:connector-curvature="0" />
    <path
       style="opacity:1;fill:#bbbbbb;fill-opacity:1;stroke:#000000;stroke-width:0;stroke-miterlimit:4;stroke-dasharray:none;stroke-opacity:1"
       d="m 112.02601,52.056086 c -0.0314,-0.473982 -0.0573,-3.476976 -0.0575,-6.67332 l -4.6e-4,-5.811534 h 1.76777 1.76777 v 6.673321 6.67332 h -1.71025 -1.71024 z m 2.47717,-4.419417 c 0.006,-2.369913 0.0397,-4.935384 0.0741,-5.701048 l 0.0625,-1.392117 h -0.84976 -0.84976 v 5.701049 5.701048 h 0.77563 0.77563 z"
       id="path1601"
       inkscape:connector-curvature="0" />
    <path
       style="opacity:1;fill:#bbbbbb;fill-opacity:1;stroke:#000000;stroke-width:0;stroke-miterlimit:4;stroke-dasharray:none;stroke-opacity:1"
       d="m 123.10496,47.968125 v -4.861359 h -1.59099 -1.59099 v -1.723573 -1.723572 h 4.77297 4.77297 l -5.3e-4,0.994369 c -2.6e-4,0.546902 -0.026,1.321553 -0.0571,1.721445 l -0.0566,0.727076 -1.42337,0.02423 -1.42338,0.02422 -0.0228,4.839262 -0.0229,4.839262 h -1.67862 -1.67863 z m 2.47488,-0.928077 v -4.817165 h 1.4584 1.45841 v -0.83969 -0.839689 h -3.8007 -3.8007 v 0.839689 0.83969 h 1.5468 1.5468 v 4.817165 4.817165 h 0.79549 0.7955 z"
       id="path1607"
       inkscape:connector-curvature="0" />
    <path
       style="opacity:1;fill:#bbbbbb;fill-opacity:1;stroke:#000000;stroke-width:0;stroke-miterlimit:4;stroke-dasharray:none;stroke-opacity:1"
       d="m 124.07724,46.951659 v -4.817165 h -1.5468 -1.5468 v -0.751301 -0.751301 h 3.71231 3.71231 v 0.751301 0.751301 h -1.4584 -1.45841 v 4.817165 4.817165 h -0.70711 -0.7071 z"
       id="path1609"
       inkscape:connector-curvature="0" />
    <path
       style="opacity:1;fill:#bbbbbb;fill-opacity:1;stroke:#000000;stroke-width:0;stroke-miterlimit:4;stroke-dasharray:none;stroke-opacity:1"
       d="m 155.97703,49.934766 c -0.0319,-1.057346 -0.0582,-3.583043 -0.0583,-5.61266 l -2.1e-4,-3.690214 h 0.79549 0.7955 l 2.7e-4,4.087962 c 1.5e-4,2.248378 0.0263,4.774075 0.0581,5.61266 l 0.0578,1.524699 h -0.79533 -0.79533 l -0.0581,-1.922447 z"
       id="path1611"
       inkscape:connector-curvature="0" />
    <path
       style="opacity:1;fill:#bbbbbb;fill-opacity:1;stroke:#000000;stroke-width:0;stroke-miterlimit:4;stroke-dasharray:none;stroke-opacity:1"
       d="m 154.94627,46.244553 v -6.584932 h 1.81197 1.81196 v 6.584932 6.584931 h -1.81196 -1.81197 z m 2.63517,-0.0033 0.0276,-5.704316 -0.86732,0.02537 -0.86733,0.02536 0.0227,3.447146 c 0.0125,1.89593 0.0237,4.451458 0.0248,5.678951 l 0.002,2.231806 h 0.81492 0.81492 z"
       id="path1613"
       inkscape:connector-curvature="0" />
    <path
       style="opacity:1;fill:#bbbbbb;fill-opacity:1;stroke:#000000;stroke-width:0.024;stroke-miterlimit:4;stroke-dasharray:none;stroke-opacity:1"
       d="m 184.99831,46.200358 v -5.568466 h 3.49134 3.49134 v 0.83969 0.839689 h -2.60745 -2.60746 v 1.767767 1.767767 h 2.2981 2.29809 v 0.662913 0.662912 h -2.29809 -2.2981 v 1.679379 1.679378 h 2.65165 2.65165 v 0.618719 0.618718 h -3.53553 -3.53554 z"
       id="path1619"
       inkscape:connector-curvature="0" />
    <path
       style="opacity:1;fill:#bbbbbb;fill-opacity:1;stroke:#000000;stroke-width:0;stroke-miterlimit:4;stroke-dasharray:none;stroke-opacity:1"
       d="m 184.02604,46.187767 v -6.641718 l 0.5433,0.05679 c 0.29881,0.03123 2.32732,0.05679 4.5078,0.05679 h 3.96451 v 1.856155 1.856155 H 190.39 187.73835 v 0.751301 0.751301 h 2.2981 2.2981 v 1.679379 1.679378 h -2.2981 -2.2981 v 0.662913 0.662913 h 2.65165 2.65165 v 1.635184 1.635184 h -4.5078 -4.50781 z m 8.13173,5.018845 v -0.650601 l -0.46404,-0.05574 c -0.25522,-0.03066 -1.44846,-0.05608 -2.65165,-0.05651 l -2.18761,-7.68e-4 v -1.59099 -1.59099 h 2.30167 2.30167 l -0.0257,-0.729204 -0.0257,-0.729204 -2.276,-0.02359 -2.276,-0.02359 v -1.677886 -1.677887 h 2.60745 2.60746 v -0.928077 -0.928078 h -3.57973 -3.57973 l 3.7e-4,4.529903 c 1.9e-4,2.491446 0.0262,5.037031 0.0578,5.656854 l 0.0575,1.126952 h 3.56609 3.56609 z"
       id="path1621"
       inkscape:connector-curvature="0" />
    <path
       style="opacity:1;fill:#bbbbbb;fill-opacity:1;stroke:#000000;stroke-width:0;stroke-miterlimit:4;stroke-dasharray:none;stroke-opacity:1"
       d="m 201.06993,51.087395 c 0.13797,-0.378724 1.04301,-2.8859 2.01121,-5.571501 l 1.76036,-4.882911 0.71584,-5.45e-4 0.71585,-5.46e-4 1.89161,5.494202 c 1.04038,3.021811 1.90487,5.52762 1.92107,5.568466 0.0162,0.04085 -0.31057,0.07426 -0.72616,0.07426 h -0.75563 l -0.47206,-1.480505 -0.47205,-1.480504 h -2.20473 -2.20473 l -0.49476,1.458407 -0.49475,1.458408 -0.72097,0.02568 -0.72096,0.02568 z m 6.44111,-2.96459 c -0.025,-0.109381 -0.33757,-1.40178 -0.69459,-2.871998 l -0.64913,-2.673124 -0.64081,-6.23e-4 c -0.35245,-3.43e-4 -0.64082,0.02138 -0.64082,0.04828 0,0.04442 -1.36033,5.177793 -1.46852,5.541654 -0.0429,0.144254 0.0951,0.15468 2.04667,0.15468 h 2.09267 z"
       id="path1623"
       inkscape:connector-curvature="0" />
    <path
       style="opacity:1;fill:#bbbbbb;fill-opacity:1;stroke:#000000;stroke-width:0;stroke-miterlimit:4;stroke-dasharray:none;stroke-opacity:1"
       d="m 203.41979,48.240656 c -0.0822,-0.08246 -0.0295,-0.19012 0.0646,-0.131981 0.0716,0.04427 0.0835,-0.0081 0.0406,-0.178966 -0.0439,-0.175056 -0.0318,-0.223725 0.0442,-0.176777 0.076,0.04695 0.0881,-0.0017 0.0442,-0.176777 -0.0429,-0.170994 -0.031,-0.223253 0.0408,-0.178891 0.0709,0.04381 0.0824,0.0028 0.0383,-0.136245 -0.0468,-0.147346 -0.0344,-0.18117 0.0476,-0.130468 0.0832,0.05143 0.0957,0.0084 0.0501,-0.173114 -0.0439,-0.175056 -0.0318,-0.223725 0.0442,-0.176777 0.076,0.04695 0.0881,-0.0017 0.0442,-0.176777 -0.0442,-0.176229 -0.032,-0.223866 0.0452,-0.176138 0.0743,0.04594 0.091,0.0086 0.056,-0.125177 -0.0274,-0.104829 -0.0111,-0.190598 0.0362,-0.190598 0.0475,0 0.0594,-0.0841 0.0264,-0.187845 -0.0437,-0.137588 -0.03,-0.169533 0.0511,-0.1194 0.0832,0.05143 0.0957,0.0084 0.0501,-0.173113 -0.0439,-0.175056 -0.0318,-0.223725 0.0442,-0.176777 0.076,0.04695 0.0881,-0.0017 0.0442,-0.176777 -0.0439,-0.175056 -0.0318,-0.223724 0.0442,-0.176777 0.076,0.04695 0.0881,-0.0017 0.0442,-0.176776 -0.0429,-0.170994 -0.031,-0.223253 0.0408,-0.178891 0.0709,0.04381 0.0824,0.0028 0.0383,-0.136246 -0.0468,-0.147345 -0.0344,-0.181169 0.0476,-0.130468 0.0832,0.05143 0.0957,0.0084 0.0501,-0.173114 -0.0439,-0.175055 -0.0318,-0.223724 0.0442,-0.176776 0.076,0.04695 0.0881,-0.0017 0.0442,-0.176777 -0.0439,-0.175056 -0.0318,-0.223725 0.0442,-0.176777 0.076,0.04695 0.0881,-0.0017 0.0442,-0.176776 -0.0353,-0.140594 -0.0266,-0.220509 0.0209,-0.191195 0.0964,0.05957 0.29322,-0.648384 0.21531,-0.774444 -0.0317,-0.05136 0.009,-0.06253 0.10076,-0.02743 0.0849,0.03257 0.36982,0.05921 0.63322,0.05921 0.37483,0 0.47891,0.02995 0.47891,0.137799 0,0.07579 0.0414,0.112232 0.0919,0.08098 0.0602,-0.0372 0.071,0.02657 0.0313,0.184743 -0.0439,0.175056 -0.0318,0.223725 0.0442,0.176777 0.076,-0.04695 0.0881,0.0017 0.0442,0.176777 -0.0439,0.175056 -0.0318,0.223724 0.0442,0.176777 0.076,-0.04695 0.0881,0.0017 0.0442,0.176776 -0.0464,0.184913 -0.0339,0.225013 0.0535,0.171 0.087,-0.05377 0.10018,-0.01483 0.0554,0.163593 -0.0353,0.140648 -0.0221,0.234154 0.033,0.234154 0.0551,0 0.0683,0.09351 0.033,0.234154 -0.0424,0.168872 -0.0296,0.216093 0.0461,0.169371 0.076,-0.04695 0.0881,0.0017 0.0442,0.176777 -0.0439,0.175055 -0.0318,0.223724 0.0442,0.176776 0.076,-0.04695 0.0881,0.0017 0.0442,0.176777 -0.0439,0.175056 -0.0318,0.223725 0.0442,0.176777 0.076,-0.04695 0.0881,0.0017 0.0442,0.176777 -0.0439,0.175055 -0.0318,0.223724 0.0442,0.176776 0.076,-0.04695 0.0881,0.0017 0.0442,0.176777 -0.0439,0.175056 -0.0318,0.223724 0.0442,0.176777 0.076,-0.04695 0.0881,0.0017 0.0442,0.176776 -0.0439,0.175056 -0.0318,0.223725 0.0442,0.176777 0.076,-0.04695 0.0881,0.0017 0.0442,0.176777 -0.0464,0.184912 -0.0339,0.225013 0.0535,0.170999 0.087,-0.05377 0.10018,-0.01483 0.0554,0.163593 -0.0366,0.14566 -0.0225,0.234155 0.0373,0.234155 0.0558,0 0.0725,0.07405 0.0399,0.176776 -0.0344,0.108275 -0.0159,0.176777 0.0477,0.176777 0.0607,0 0.0803,0.06136 0.0471,0.147613 -0.0312,0.08132 -0.006,0.178905 0.0561,0.21729 0.28939,0.178857 -0.19135,0.242416 -2.0367,0.269276 -1.08578,0.0158 -1.99065,0.01216 -2.01083,-0.0081 z m 2.53956,-2.524413 c -0.22327,-0.89824 -0.43062,-1.604242 -0.46078,-1.568893 -0.0302,0.03535 -0.22216,0.700667 -0.42667,1.478484 -0.20451,0.777818 -0.39241,1.48382 -0.41756,1.568893 -0.0414,0.140005 0.0376,0.15468 0.83262,0.15468 h 0.87834 z"
       id="path1625"
       inkscape:connector-curvature="0" />
    <path
       style="opacity:1;fill:#bbbbbb;fill-opacity:1;stroke:#000000;stroke-width:0;stroke-miterlimit:4;stroke-dasharray:none;stroke-opacity:1"
       d="m 199.61132,52.190499 c 0.11306,-0.304841 1.17644,-3.248997 2.36307,-6.542568 l 2.1575,-5.98831 h 1.42957 1.42958 l 0.21907,0.640815 c 0.34879,1.020264 3.92001,11.371034 4.11692,11.932427 l 0.17827,0.508233 h -1.8514 c -1.2874,0 -1.85139,-0.02961 -1.85139,-0.09721 0,-0.05347 -0.20166,-0.730588 -0.44814,-1.504711 l -0.44813,-1.407496 -1.46262,0.02421 -1.46261,0.02421 -0.50164,1.458408 -0.50163,1.458408 -1.78599,0.02393 -1.78599,0.02393 z m 2.35756,-0.421675 -0.39775,-0.06184 0.35355,-0.02374 c 0.19446,-0.01306 0.38638,-0.01803 0.42651,-0.01105 0.0401,0.007 0.0458,-0.07284 0.0126,-0.177378 -0.0434,-0.136808 -0.0302,-0.171479 0.047,-0.123734 0.0779,0.04818 0.09,0.0119 0.0442,-0.132583 -0.0458,-0.14448 -0.0338,-0.180762 0.0442,-0.132582 0.0779,0.04818 0.09,0.0119 0.0442,-0.132583 -0.0459,-0.14448 -0.0338,-0.180762 0.0442,-0.132582 0.078,0.04818 0.09,0.0119 0.0442,-0.132583 -0.0459,-0.14448 -0.0338,-0.180762 0.0442,-0.132582 0.078,0.04818 0.09,0.0119 0.0442,-0.132583 -0.0473,-0.149041 -0.0348,-0.181423 0.0497,-0.129151 0.0803,0.0496 0.0966,0.02726 0.0564,-0.07732 -0.0311,-0.081 -0.0137,-0.147081 0.0386,-0.147081 0.0523,0 0.0722,-0.05966 0.0442,-0.132583 -0.028,-0.07292 -0.008,-0.132582 0.0442,-0.132582 0.0523,0 0.0722,-0.05966 0.0442,-0.132583 -0.028,-0.07292 -0.008,-0.132582 0.0442,-0.132582 0.0523,0 0.0722,-0.05966 0.0442,-0.132583 -0.028,-0.07292 -0.008,-0.132582 0.0442,-0.132582 0.0523,0 0.0722,-0.05966 0.0442,-0.132583 -0.028,-0.07292 -0.008,-0.132582 0.0442,-0.132582 0.0523,0 0.0722,-0.05966 0.0442,-0.132583 -0.0444,-0.115718 0.23622,-0.132583 2.20621,-0.132583 h 2.25708 l -0.0596,0.187846 c -0.0428,0.134882 -0.0294,0.169144 0.0477,0.121514 0.0779,-0.04818 0.09,-0.0119 0.0442,0.132582 -0.0459,0.144481 -0.0338,0.180762 0.0442,0.132583 0.0779,-0.04818 0.09,-0.0119 0.0442,0.132582 -0.0459,0.144481 -0.0338,0.180762 0.0442,0.132583 0.0771,-0.04763 0.0905,-0.01337 0.0477,0.121513 -0.0346,0.109022 -0.0212,0.187846 0.0319,0.187846 0.0504,0 0.0687,0.05966 0.0407,0.132583 -0.028,0.07292 -0.004,0.132582 0.0522,0.132582 0.0567,0 0.0796,0.03795 0.051,0.08432 -0.0797,0.128905 0.0485,0.540614 0.14897,0.478522 0.0554,-0.03425 0.0649,0.0196 0.0253,0.144262 -0.0458,0.14448 -0.0338,0.180762 0.0442,0.132582 0.0779,-0.04818 0.09,-0.0119 0.0442,0.132583 -0.0459,0.14448 -0.0338,0.180762 0.0442,0.132582 0.0779,-0.04818 0.09,-0.0119 0.0442,0.132583 -0.0459,0.14448 -0.0338,0.180762 0.0442,0.132582 0.0771,-0.04763 0.0905,-0.01337 0.0477,0.121514 -0.0563,0.177336 -0.0299,0.187846 0.47251,0.187846 0.29267,0 0.63125,-0.04516 0.75239,-0.100361 0.22193,-0.101117 0.38384,-0.341581 0.23,-0.341581 -0.0456,0 -0.06,-0.05966 -0.032,-0.132583 0.028,-0.07292 0.008,-0.132582 -0.0442,-0.132582 -0.0523,0 -0.0722,-0.05966 -0.0442,-0.132583 0.028,-0.07292 0.008,-0.132582 -0.0442,-0.132582 -0.0523,0 -0.0722,-0.05966 -0.0442,-0.132583 0.028,-0.07292 0.008,-0.132582 -0.0442,-0.132582 -0.0523,0 -0.0722,-0.05966 -0.0442,-0.132583 0.028,-0.07292 0.008,-0.132582 -0.0442,-0.132582 -0.0524,0 -0.0697,-0.06608 -0.0386,-0.147082 0.0401,-0.104577 0.0238,-0.126922 -0.0564,-0.07732 -0.0846,0.05227 -0.097,0.01989 -0.0497,-0.129152 0.0459,-0.14448 0.0338,-0.180762 -0.0442,-0.132582 -0.078,0.04818 -0.09,0.0119 -0.0442,-0.132583 0.0459,-0.14448 0.0338,-0.180762 -0.0442,-0.132582 -0.078,0.04818 -0.09,0.0119 -0.0442,-0.132583 0.0459,-0.14448 0.0338,-0.180762 -0.0442,-0.132582 -0.078,0.04818 -0.0901,0.0119 -0.0442,-0.132583 0.0473,-0.149041 0.0348,-0.181423 -0.0497,-0.129151 -0.0803,0.0496 -0.0966,0.02726 -0.0564,-0.07732 0.031,-0.08089 0.0192,-0.147082 -0.0264,-0.147082 -0.0456,0 -0.0599,-0.05966 -0.032,-0.132583 0.028,-0.07292 0.008,-0.132582 -0.0442,-0.132582 -0.0523,0 -0.0722,-0.05966 -0.0442,-0.132583 0.028,-0.07292 0.008,-0.132582 -0.0442,-0.132582 -0.0523,0 -0.0722,-0.05966 -0.0442,-0.132583 0.028,-0.07292 0.008,-0.132582 -0.0442,-0.132582 -0.0523,0 -0.0722,-0.05966 -0.0442,-0.132583 0.028,-0.07292 0.008,-0.132582 -0.0442,-0.132582 -0.0524,0 -0.0697,-0.06608 -0.0386,-0.147083 0.0401,-0.104576 0.0238,-0.126921 -0.0564,-0.07732 -0.0846,0.05227 -0.097,0.01989 -0.0497,-0.129152 0.0459,-0.14448 0.0338,-0.180762 -0.0442,-0.132582 -0.078,0.04818 -0.0901,0.0119 -0.0442,-0.132583 0.0459,-0.14448 0.0338,-0.180762 -0.0442,-0.132582 -0.078,0.04818 -0.0901,0.0119 -0.0442,-0.132583 0.0459,-0.14448 0.0338,-0.180762 -0.0442,-0.132582 -0.078,0.04818 -0.0901,0.0119 -0.0442,-0.132583 0.0459,-0.14448 0.0338,-0.180762 -0.0442,-0.132582 -0.0762,0.04711 -0.0909,0.01461 -0.0507,-0.1122 0.0328,-0.103381 0.006,-0.229293 -0.0639,-0.299121 -0.0663,-0.06632 -0.10413,-0.169951 -0.084,-0.230284 0.0201,-0.06033 -0.005,-0.109696 -0.0564,-0.109696 -0.0511,0 -0.0701,-0.05966 -0.0421,-0.132583 0.028,-0.07292 0.008,-0.132582 -0.0442,-0.132582 -0.0523,0 -0.0722,-0.05966 -0.0442,-0.132583 0.028,-0.07292 0.008,-0.132582 -0.0442,-0.132582 -0.0524,0 -0.0697,-0.06608 -0.0386,-0.147083 0.0401,-0.104576 0.0238,-0.126921 -0.0564,-0.07732 -0.0846,0.05227 -0.0971,0.01989 -0.0498,-0.129152 0.0459,-0.14448 0.0338,-0.180762 -0.0442,-0.132582 -0.078,0.04818 -0.0901,0.0119 -0.0442,-0.132583 0.0459,-0.14448 0.0338,-0.180762 -0.0442,-0.132582 -0.078,0.04818 -0.09,0.0119 -0.0442,-0.132583 0.0459,-0.14448 0.0338,-0.180762 -0.0442,-0.132582 -0.0779,0.04818 -0.09,0.0119 -0.0442,-0.132583 0.0458,-0.14448 0.0338,-0.180762 -0.0442,-0.132582 -0.0779,0.04818 -0.09,0.0119 -0.0442,-0.132583 0.0473,-0.149041 0.0348,-0.181423 -0.0498,-0.129152 -0.0803,0.0496 -0.0966,0.02726 -0.0564,-0.07732 0.031,-0.08089 0.0192,-0.147082 -0.0264,-0.147082 -0.0456,0 -0.0599,-0.05966 -0.032,-0.132583 0.028,-0.07292 0.008,-0.132582 -0.0442,-0.132582 -0.0523,0 -0.0722,-0.05966 -0.0442,-0.132583 0.028,-0.07292 0.008,-0.132582 -0.0442,-0.132582 -0.0523,0 -0.0722,-0.05966 -0.0442,-0.132583 0.028,-0.07292 0.008,-0.132583 -0.0442,-0.132583 -0.0523,0 -0.0722,-0.05966 -0.0442,-0.132582 0.028,-0.07292 0.008,-0.132583 -0.0442,-0.132583 -0.0524,0 -0.0697,-0.06608 -0.0386,-0.147082 0.0401,-0.104576 0.0238,-0.126921 -0.0564,-0.07732 -0.0846,0.05227 -0.097,0.01989 -0.0497,-0.129152 0.0459,-0.14448 0.0338,-0.180762 -0.0442,-0.132582 -0.078,0.04818 -0.09,0.0119 -0.0442,-0.132583 0.0459,-0.14448 0.0338,-0.180762 -0.0442,-0.132583 -0.078,0.04818 -0.09,0.0119 -0.0442,-0.132582 0.0459,-0.14448 0.0338,-0.180762 -0.0442,-0.132583 -0.078,0.04818 -0.09,0.0119 -0.0442,-0.132582 0.0473,-0.149041 0.0348,-0.181423 -0.0498,-0.129152 -0.0812,0.05019 -0.0964,0.02669 -0.054,-0.08372 0.0324,-0.08442 0.0171,-0.23167 -0.0341,-0.327229 -0.0833,-0.155582 -0.17331,-0.171081 -0.86147,-0.148276 -0.66887,0.02217 -0.76689,0.04552 -0.75621,0.180146 0.007,0.08507 -0.0264,0.15468 -0.0736,0.15468 -0.0473,0 -0.0695,0.04936 -0.0494,0.109696 0.0201,0.06033 -0.0177,0.163961 -0.084,0.230284 -0.0698,0.06983 -0.0967,0.19574 -0.0639,0.29912 0.0403,0.126807 0.0256,0.159314 -0.0507,0.1122 -0.078,-0.04818 -0.09,-0.0119 -0.0442,0.132583 0.0464,0.146174 0.0341,0.181 -0.0462,0.131348 -0.0709,-0.04381 -0.095,-0.02467 -0.0687,0.05443 0.0224,0.0671 -0.0136,0.176265 -0.0799,0.242588 -0.0698,0.06983 -0.0967,0.19574 -0.0639,0.29912 0.0402,0.126807 0.0256,0.159314 -0.0507,0.1122 -0.078,-0.04818 -0.0901,-0.0119 -0.0442,0.132583 0.0473,0.149041 0.0348,0.181423 -0.0497,0.129151 -0.0803,-0.0496 -0.0966,-0.02726 -0.0564,0.07732 0.031,0.08089 0.0146,0.147082 -0.0365,0.147082 -0.0511,0 -0.0765,0.04936 -0.0564,0.109696 0.0201,0.06033 -0.0177,0.163961 -0.084,0.230285 -0.0698,0.06983 -0.0967,0.19574 -0.0639,0.29912 0.0402,0.126806 0.0256,0.159314 -0.0507,0.1122 -0.0779,-0.04818 -0.09,-0.0119 -0.0442,0.132583 0.0464,0.146174 0.0341,0.181 -0.0462,0.131348 -0.0709,-0.04381 -0.095,-0.02467 -0.0687,0.05443 0.0224,0.0671 -0.0136,0.176264 -0.0799,0.242588 -0.0698,0.06983 -0.0967,0.195739 -0.0639,0.29912 0.0403,0.126806 0.0256,0.159314 -0.0507,0.1122 -0.078,-0.04818 -0.0901,-0.0119 -0.0442,0.132583 0.0473,0.14904 0.0348,0.181422 -0.0497,0.129151 -0.0803,-0.0496 -0.0966,-0.02726 -0.0564,0.07732 0.031,0.08089 0.0146,0.147082 -0.0365,0.147082 -0.0511,0 -0.0765,0.04936 -0.0564,0.109696 0.0201,0.06033 -0.0177,0.163961 -0.084,0.230285 -0.0698,0.06983 -0.0967,0.195739 -0.0639,0.29912 0.0402,0.126806 0.0256,0.159313 -0.0507,0.1122 -0.078,-0.04818 -0.09,-0.0119 -0.0442,0.132582 0.0464,0.146175 0.0341,0.181 -0.0462,0.131348 -0.0709,-0.04381 -0.095,-0.02467 -0.0686,0.05443 0.0224,0.0671 -0.0136,0.176264 -0.0799,0.242588 -0.0698,0.06983 -0.0967,0.195739 -0.0639,0.29912 0.0403,0.126806 0.0256,0.159313 -0.0507,0.1122 -0.078,-0.04818 -0.09,-0.0119 -0.0442,0.132582 0.0464,0.146175 0.0342,0.181 -0.0462,0.131348 -0.0709,-0.04381 -0.095,-0.02467 -0.0687,0.05443 0.0224,0.0671 -0.0136,0.176264 -0.0799,0.242587 -0.0698,0.06983 -0.0967,0.19574 -0.0639,0.299121 0.0402,0.126806 0.0256,0.159313 -0.0507,0.1122 -0.0779,-0.04818 -0.09,-0.0119 -0.0442,0.132582 0.0473,0.149041 0.0348,0.181423 -0.0497,0.129152 -0.0803,-0.0496 -0.0966,-0.02726 -0.0564,0.07732 0.031,0.08089 0.0146,0.147082 -0.0365,0.147082 -0.0511,0 -0.0765,0.04936 -0.0564,0.109697 0.0201,0.06033 -0.0177,0.163961 -0.084,0.230284 -0.0698,0.06983 -0.0967,0.19574 -0.0639,0.29912 0.0403,0.126807 0.0256,0.159314 -0.0507,0.1122 -0.078,-0.04818 -0.09,-0.0119 -0.0442,0.132583 0.0464,0.146175 0.0341,0.181 -0.0462,0.131348 -0.0709,-0.04381 -0.095,-0.02467 -0.0687,0.05443 0.0224,0.0671 -0.0136,0.176264 -0.0799,0.242587 -0.0698,0.06983 -0.0967,0.19574 -0.0639,0.29912 0.0402,0.126806 0.0256,0.159314 -0.0507,0.1122 -0.078,-0.04818 -0.09,-0.0119 -0.0442,0.132583 0.0464,0.146175 0.0342,0.181 -0.0462,0.131347 -0.0709,-0.04381 -0.095,-0.02467 -0.0687,0.05443 0.0224,0.0671 -0.0136,0.176264 -0.0799,0.242588 -0.0698,0.06983 -0.0967,0.19574 -0.0639,0.29912 0.0402,0.126806 0.0256,0.159314 -0.0507,0.1122 -0.0779,-0.04818 -0.09,-0.0119 -0.0442,0.132583 0.0459,0.14448 0.0338,0.180762 -0.0442,0.132582 -0.078,-0.04818 -0.09,-0.0119 -0.0442,0.132583 0.043,0.135506 0.0319,0.179635 -0.0347,0.138434 -0.0538,-0.03326 -0.0979,-0.01836 -0.0979,0.03313 0,0.06009 0.29272,0.08885 0.81759,0.08033 0.66308,-0.01077 0.74242,-0.02496 0.41985,-0.07511 z"
       id="path1627"
       inkscape:connector-curvature="0" />
    <path
       style="opacity:1;fill:#bbbbbb;fill-opacity:1;stroke:#909090;stroke-width:0.1;stroke-miterlimit:4;stroke-dasharray:none;stroke-opacity:1"
       d="m 221.39495,6.7372083 c -0.0944,-0.043655 -0.10283,-1.1016995 -0.018,-2.2691907 l 0.0563,-0.7747429 0.29543,-0.2999463 c 0.35487,-0.3602821 0.8702,-0.644392 1.33816,-0.7377391 0.47948,-0.095647 1.66916,-0.1929074 2.36741,-0.1935442 l 0.58617,-5.345e-4 -0.0455,0.703125 c -0.10996,1.6997104 -0.26203,3.0525952 -0.35339,3.1439535 -0.19158,0.1915866 -1.54497,0.372123 -3.2422,0.4324967 -0.49844,0.01773 -0.94141,0.015986 -0.98438,-0.00388 z"
       id="path3103"
       inkscape:connector-curvature="0" />
    <path
       style="opacity:1;fill:#bbbbbb;fill-opacity:1;stroke:#000000;stroke-width:0;stroke-linecap:butt;stroke-linejoin:round;stroke-miterlimit:4;stroke-dasharray:none;stroke-dashoffset:0;stroke-opacity:1;paint-order:normal"
       d="m 166.71635,52.762133 c -0.012,-0.06198 -0.18033,-11.179556 -0.18216,-12.03125 l -0.002,-1.078125 h 3.18447 3.18447 l 0.38395,0.453125 c 1.14714,1.353853 1.94847,2.948685 2.31973,4.616844 0.20041,0.900501 0.20058,2.412672 3.7e-4,3.348057 -0.38261,1.78761 -1.48539,3.843915 -2.42229,4.516747 l -0.26489,0.190227 h -3.09915 c -1.70454,0 -3.10052,-0.007 -3.10219,-0.01563 z m 5.75179,-2.28125 c 0.38528,-0.535328 0.91381,-1.655529 1.09844,-2.328125 0.22097,-0.804993 0.27836,-2.149923 0.12617,-2.956999 -0.18656,-0.989388 -0.70498,-2.177222 -1.35283,-3.099735 l -0.3113,-0.443266 h -1.74837 -1.74837 l 0.002,1.171875 c 0.004,2.132911 0.11571,7.890904 0.15459,7.953814 0.0237,0.03836 0.69901,0.06181 1.77957,0.06181 h 1.74137 z"
       id="path3523"
       inkscape:connector-curvature="0" />
  </g>
  <g
     inkscape:groupmode="layer"
     id="layer2"
     inkscape:label="Color"
     style="display:inline" />
</svg>
