<?xml version="1.0" encoding="UTF-8" standalone="no"?>
<!-- Created with Inkscape (http://www.inkscape.org/) -->

<svg
   xmlns:dc="http://purl.org/dc/elements/1.1/"
   xmlns:cc="http://creativecommons.org/ns#"
   xmlns:rdf="http://www.w3.org/1999/02/22-rdf-syntax-ns#"
   xmlns:svg="http://www.w3.org/2000/svg"
   xmlns="http://www.w3.org/2000/svg"
   xmlns:sodipodi="http://sodipodi.sourceforge.net/DTD/sodipodi-0.dtd"
   xmlns:inkscape="http://www.inkscape.org/namespaces/inkscape"
   version="1.1"
   id="svg3741"
   width="228"
   height="55"
   viewBox="0 0 228 55"
   sodipodi:docname="trenet-logo.svg"
   inkscape:version="0.92.3 (2405546, 2018-03-11)">
  <metadata
     id="metadata3747">
    <rdf:RDF>
      <cc:Work
         rdf:about="">
        <dc:format>image/svg+xml</dc:format>
        <dc:type
           rdf:resource="http://purl.org/dc/dcmitype/StillImage" />
        <dc:title></dc:title>
      </cc:Work>
    </rdf:RDF>
  </metadata>
  <defs
     id="defs3745">
    <filter
       inkscape:label="Sharpen More"
       inkscape:menu="Image Effects"
       inkscape:menu-tooltip="Sharpen edges and boundaries within the object, force=0.3"
       style="color-interpolation-filters:sRGB;"
       id="filter3767">
      <feConvolveMatrix
         order="3 3"
         kernelMatrix="0 -0.15 0 -0.15 1.6 -0.15 0 -0.15 0"
         divisor="1"
         in="SourceGraphic"
         targetX="1"
         targetY="1"
         id="feConvolveMatrix3765"
         result="fbSourceGraphic" />
      <feColorMatrix
         result="fbSourceGraphicAlpha"
         in="fbSourceGraphic"
         values="0 0 0 -1 0 0 0 0 -1 0 0 0 0 -1 0 0 0 0 1 0"
         id="feColorMatrix3769" />
      <feConvolveMatrix
         id="feConvolveMatrix3771"
         targetY="1"
         targetX="1"
         in="fbSourceGraphic"
         divisor="1"
         kernelMatrix="0 -0.3 0 -0.3 2.2 -0.3 0 -0.3 0"
         order="3 3"
         result="result1" />
      <feBlend
         in2="fbSourceGraphic"
         id="feBlend3773"
         mode="normal"
         result="result2" />
    </filter>
  </defs>
  <sodipodi:namedview
     pagecolor="#ffffff"
     bordercolor="#666666"
     borderopacity="1"
     objecttolerance="10"
     gridtolerance="10"
     guidetolerance="10"
     inkscape:pageopacity="0"
     inkscape:pageshadow="2"
     inkscape:window-width="1215"
     inkscape:window-height="1001"
     id="namedview3743"
     showgrid="false"
     inkscape:zoom="2.8284271"
     inkscape:cx="109.14048"
     inkscape:cy="35.761494"
     inkscape:window-x="1272"
     inkscape:window-y="-8"
     inkscape:window-maximized="1"
     inkscape:current-layer="svg3741"
     showguides="true"
     inkscape:guide-bbox="true">
    <sodipodi:guide
       position="116.076,22.892582"
       orientation="0,1"
       id="guide3986"
       inkscape:locked="false" />
    <sodipodi:guide
       position="129.2717,3.7103774"
       orientation="0,1"
       id="guide3988"
       inkscape:locked="false" />
    <sodipodi:guide
       position="111.25,47.09375"
       orientation="1,0"
       id="guide4583"
       inkscape:locked="false" />
    <sodipodi:guide
       position="117.875,54.1875"
       orientation="0,1"
       id="guide4585"
       inkscape:locked="false" />
    <sodipodi:guide
       position="116.29697,51.110562"
       orientation="1,0"
       id="guide4587"
       inkscape:locked="false" />
    <sodipodi:guide
       position="148.75759,41.630912"
       orientation="1,0"
       id="guide4589"
       inkscape:locked="false" />
    <sodipodi:guide
       position="71.84375,33.6875"
       orientation="1,0"
       id="guide4591"
       inkscape:locked="false" />
    <sodipodi:guide
       position="76.265625,37.9375"
       orientation="1,0"
       inkscape:locked="false"
       id="guide4593" />
    <sodipodi:guide
       position="152.38151,36.504388"
       orientation="1,0"
       id="guide4595"
       inkscape:locked="false" />
    <sodipodi:guide
       position="205.5692,49.696348"
       orientation="0,1"
       id="guide4597"
       inkscape:locked="false" />
    <sodipodi:guide
       position="190.125,30.5625"
       orientation="1,0"
       id="guide4599"
       inkscape:locked="false" />
    <sodipodi:guide
       position="192.35514,9.4796503"
       orientation="1,0"
       id="guide4601"
       inkscape:locked="false" />
    <sodipodi:guide
       position="34.957591,36.062446"
       orientation="1,0"
       id="guide4603"
       inkscape:locked="false" />
    <sodipodi:guide
       position="30.3125,39.75"
       orientation="1,0"
       id="guide4605"
       inkscape:locked="false" />
    <sodipodi:guide
       position="116.87149,16.99266"
       orientation="0,1"
       id="guide4607"
       inkscape:locked="false" />
    <sodipodi:guide
       position="114.81646,1.7677669"
       orientation="1,0"
       id="guide4609"
       inkscape:locked="false" />
    <sodipodi:guide
       position="123.73264,14.341009"
       orientation="0,1"
       id="guide4613"
       inkscape:locked="false" />
  </sodipodi:namedview>
  <g
     inkscape:groupmode="layer"
     id="layer1"
     inkscape:label="Overlay">
    <path
       style="fill:none;stroke:#000000;stroke-width:1px;stroke-linecap:butt;stroke-linejoin:miter;stroke-opacity:1"
       d="M 56.462264,18.326415 C 71.841509,15.530189 69.690566,1.2264151 69.690566,1.2264151 H 1.6132075 v 4.5818101 l 10.2169815,0.00781 V 31.662264 h 5.054717 V 5.8093352 l 13.929844,0.0019 0.05129,25.8569102 h 4.624528 v -12.80399 h 13.120755 l 16.562264,14.088679 3.710377,-3.710377 z"
       id="path3878"
       inkscape:connector-curvature="0"
       sodipodi:nodetypes="cccccccccccccccc" />
    <path
       style="fill:none;stroke:#000000;stroke-width:1px;stroke-linecap:butt;stroke-linejoin:miter;stroke-opacity:1"
       d="m 58.50566,13.379245 c 7.81853,-2.622354 6.345283,-7.6358488 6.345283,-7.6358488 l -29.397165,0.066291 v 7.8509435 z"
       id="path3884"
       inkscape:connector-curvature="0"
       sodipodi:nodetypes="ccccc" />
    <path
       style="fill:none;stroke:#000000;stroke-width:1px;stroke-linecap:butt;stroke-linejoin:miter;stroke-opacity:1"
       d="m 76.813525,13.831531 c -0.5479,-5.887885 4.206694,-7.7825162 6.197265,-7.8045558 l 25.39676,-0.068485 V 1.3339622 c 0,0 -23.458568,-0.1044065 -24.318946,0.00314 C 83.228227,1.4446494 74.384794,1.749567 72.45588,9.8857283 72.291812,10.463853 72.48679,31.6538 72.48679,31.6538 l 35.90901,-3e-6 0.0111,-4.864306 -31.618173,0.03315 V 18.756604 H 108.4083 l -0.0221,-5.051779 z"
       id="path3892"
       inkscape:connector-curvature="0"
       sodipodi:nodetypes="ccccsccccccccc" />
  </g>
  <path
     style="fill:none;stroke:#000000;stroke-width:1px;stroke-linecap:butt;stroke-linejoin:miter;stroke-opacity:1"
     d="m 111.75713,31.620115 5.05572,-5.16e-4 0.0262,-23.2125589 31.40782,25.2289169 c 4.3e-4,-10.674498 0.0685,-22.264971 0.0138,-32.323457 l -5.59464,0.00482 -0.20939,21.560397 -25.96562,-21.5603851 -4.75032,-0.00475 z"
     id="path3904"
     inkscape:connector-curvature="0"
     sodipodi:nodetypes="cccccccccc" />
  <path
     style="fill:none;stroke:#000000;stroke-width:1px;stroke-linecap:butt;stroke-linejoin:miter;stroke-opacity:1"
     d="m 189.66205,27.318771 -0.0107,4.319897 -36.71925,-0.01679 -0.0247,-18.99546 v 0 c 0.10842,-3.4304874 4.31753,-11.3454327 11.21176,-11.2997641 7.10122,0.04704 55.89146,0 55.89146,0 l -0.013,4.4536539 -10.92591,0.066291 0.038,25.7685412 -5.24771,-0.0013 -0.0601,-25.7628539 c 0,0 -37.67754,-0.063714 -38.82453,0 -0.36326,0.020179 -1.85481,0.035758 -2.83895,0.5277603 -1.79401,0.8968764 -3.40348,2.758605 -4.04407,4.7420516 -0.97212,3.009966 0,2.581132 0,2.581132 h 31.55258 l -0.0221,5.269811 H 158.2019 l 0.10755,8.496227 z"
     id="path3964"
     inkscape:connector-curvature="0"
     sodipodi:nodetypes="cccccsccccccssscccccc" />
  <path
     style="fill:none;stroke:#000000;stroke-width:1px;stroke-linecap:butt;stroke-linejoin:miter;stroke-opacity:1"
     d="m 219.99762,5.7803078 c 1.54563,-0.02679 3.02305,0.2480266 5.47911,-0.4766558 0.40358,-1.9910457 0.24696,-3.0892095 0.49797,-5.05773188 -1.9339,0.15076536 -3.94733,-0.023612 -4.88943,0.74484838 l -0.65305,0.5198209 -0.37941,0.6337982 z"
     id="path3976"
     inkscape:connector-curvature="0"
     sodipodi:nodetypes="ccccccc" />
  <path
     style="fill:none;stroke:#000000;stroke-width:1px;stroke-linecap:butt;stroke-linejoin:miter;stroke-opacity:1"
     d="m 111.75156,50.893444 h 2.54758 l 0.0269,-12.351991 c -0.81341,0 -1.63178,0 -2.58561,0 z"
     id="path3978"
     inkscape:connector-curvature="0"
     sodipodi:nodetypes="ccccc" />
  <path
     style="fill:none;stroke:#000000;stroke-width:1px;stroke-linecap:butt;stroke-linejoin:miter;stroke-opacity:1"
     d="m 122.85447,50.817397 h 2.47154 l -0.011,-9.654135 h 2.92782 l 0.011,-2.589486 h -8.55533 v 2.547586 l 3.11794,0.03802 z"
     id="path3980"
     inkscape:connector-curvature="0"
     sodipodi:nodetypes="ccccccccc" />
  <text
     xml:space="preserve"
     style="font-style:normal;font-weight:normal;font-size:23.45157051px;line-height:1.25;font-family:sans-serif;letter-spacing:0px;word-spacing:0px;fill:#000000;fill-opacity:1;stroke:none;stroke-width:0.58628923"
     x="139.04134"
     y="48.642475"
     id="text3984"
     transform="matrix(0.95321649,0,0.01228494,1.0490796,0,0)"><tspan
       sodipodi:role="line"
       id="tspan3982"
       x="139.04134"
       y="48.642475"
       style="font-style:normal;font-variant:normal;font-weight:normal;font-stretch:normal;font-family:'Colonna MT';-inkscape-font-specification:'Colonna MT';stroke-width:0.58628923">&amp;</tspan></text>
  <path
     style="fill:none;stroke:#000000;stroke-width:1px;stroke-linecap:butt;stroke-linejoin:miter;stroke-opacity:1"
     d="m 154.7183,50.85542 h 2.66166 l -0.0269,-12.256363 h -2.69968 z"
     id="path3992"
     inkscape:connector-curvature="0"
     sodipodi:nodetypes="ccccc" />
  <path
     style="fill:none;stroke:#000000;stroke-width:1px;stroke-linecap:butt;stroke-linejoin:miter;stroke-opacity:1"
     d="m 166.99387,50.772133 4.88653,0.01893 c 0.35328,-0.240432 4.75333,-5.788846 -0.15443,-12.218894 -0.7955,0.03343 -3.37582,0.0089 -4.89339,0 z"
     id="path3994"
     inkscape:connector-curvature="0"
     sodipodi:nodetypes="ccccc" />
  <path
     style="fill:none;stroke:#000000;stroke-width:1px;stroke-linecap:butt;stroke-linejoin:miter;stroke-opacity:1"
     d="M 183.77524,51.289623 Z"
     id="path4539"
     inkscape:connector-curvature="0" />
  <path
     style="fill:none;stroke:#000000;stroke-width:1px;stroke-linecap:butt;stroke-linejoin:miter;stroke-opacity:1"
     d="m 183.77524,50.821122 8.10216,-0.01338 v -2.300826 l -5.31941,-0.03786 v -2.252705 h 4.60006 v -2.423077 h -4.58113 v -2.423077 h 5.26736 l -0.0134,-2.793284 -8.10691,-0.02638 z"
     id="path4541"
     inkscape:connector-curvature="0"
     sodipodi:nodetypes="ccccccccccccc" />
  <path
     style="fill:none;stroke:#000000;stroke-width:1px;stroke-linecap:butt;stroke-linejoin:miter;stroke-opacity:1"
     d="m 199.33594,50.778505 h 2.57452 l 1.03065,-3.01288 3.58473,5e-6 0.9519,3.009436 c 0.91496,0.0063 1.7335,-0.04075 2.64846,-0.03445 v 0 L 205.93332,38.56218 c -0.34913,0 -1.31632,0.01105 -2.19282,0.01105 z"
     id="path4543"
     inkscape:connector-curvature="0"
     sodipodi:nodetypes="cccccccccc" />
  <path
     style="fill:none;stroke:#000000;stroke-width:0.67721117px;stroke-linecap:butt;stroke-linejoin:miter;stroke-opacity:1"
     d="m 168.29965,49.193611 3.03296,0.01399 c 0.21927,-0.177653 2.95029,-4.277337 -0.0958,-9.028455 -0.49376,0.02471 -2.0953,0.0067 -3.03722,0 z"
     id="path3994-3"
     inkscape:connector-curvature="0"
     sodipodi:nodetypes="ccccc" />
  <path
     style="fill:none;stroke:#000000;stroke-width:0.9458552px;stroke-linecap:butt;stroke-linejoin:miter;stroke-opacity:1"
     d="m 206.19475,46.29688 -1.1601,-4.738413 -0.44789,0.004 -1.26101,4.729414 c 1.04451,0.01254 1.82435,0.005 2.869,0.005 z"
     id="path4581"
     inkscape:connector-curvature="0"
     sodipodi:nodetypes="ccccc" />
</svg>
